# xmcd
#
# Track frame offsets: 
#        150
#        26239
#        43331
#        56652
#        73041
#        87027
#        116697
#        136184
#        158339
#        185148
#        203696
#        239692
#
# Disc length: 3892 seconds
#
# Revision: 0
# Processed by: cddbd v1.5.1PL0 Copyright (c) Steve Scherf et al.
# Submitted via: ExactAudioCopy v0.95b3
#
DISCID=aa0f320c
DTITLE=Tadeusz Pocieszyñski and The Bluesmobile - Pojedynczy Cz³owiek
DYEAR=1900
DGENRE=Blues
TTITLE0=Demonstracja
TTITLE1=Kiedy w rêkê wbijam drzazgê
TTITLE2=Zimny, zimny pot 
TTITLE3=Nie sta³o siê nic
TTITLE4=Niewa¿na sprawa
TTITLE5=Pojedynczy cz³owiek
TTITLE6=Pocz¹tek i koniec
TTITLE7=Trik
TTITLE8=Kiedy wsta³em dzis rano
TTITLE9=Bis - Nie sta³o siê nic
TTITLE10=Pojedynczy Cz³owiek (wersja studyjna)
TTITLE11=~~~Data Track~~~
EXTD=
EXTT0=
EXTT1=
EXTT2=
EXTT3=
EXTT4=
EXTT5=
EXTT6=
EXTT7=
EXTT8=
EXTT9=
EXTT10=
EXTT11=
PLAYORDER=
